<?xml version="1.0" encoding="UTF-8"?>
<svg id="Layer_2" data-name="Layer 2" xmlns="http://www.w3.org/2000/svg" viewBox="0 0 38.73 36.35">
  <defs>
    <style>
      .cls-1 {
        fill: #0a95e2;
      }

      .cls-2 {
        fill: #6db5e3;
      }
    </style>
  </defs>
  <g id="Layer_1-2" data-name="Layer 1">
    <g>
      <path class="cls-2" d="M35.74,24.1l-6.37-6.16,2.8-2.89c.82-.84,1.04-2.04.6-3.13-.45-1.09-1.46-1.78-2.63-1.8l-16.01-.33c-.81-.02-1.58.3-2.15.89-.57.59-.86,1.36-.81,2.18l.87,15.99c.06,1.17.79,2.16,1.89,2.57,1.1.41,2.29.14,3.11-.7l3.24-3.35,6.37,6.16c2.6,2.51,6.75,2.44,9.26-.16,2.51-2.6,2.44-6.75-.16-9.26Z"/>
      <path class="cls-1" d="M36.44,23.38l-5.65-5.46,2.1-2.17c1.1-1.13,1.4-2.75.8-4.21-.6-1.46-1.96-2.39-3.53-2.42l-16.01-.33c-1.13-.01-2.14.41-2.89,1.19-.75.78-1.15,1.85-1.09,2.93l.87,15.99c.09,1.58,1.06,2.9,2.54,3.45,1.48.55,3.08.19,4.17-.95l2.54-2.63,5.65,5.46c1.41,1.37,3.27,2.11,5.24,2.11.04,0,.09,0,.13,0,2.02-.03,3.9-.85,5.3-2.29,1.4-1.44,2.15-3.35,2.11-5.38s-.85-3.9-2.29-5.3ZM26.64,33.52l-6.37-6.16-3.24,3.35c-.82.84-2,1.11-3.11.7-1.1-.41-1.82-1.39-1.89-2.57l-.87-15.99c-.04-.82.25-1.59.81-2.18.57-.59,1.34-.91,2.15-.89l16.01.33c1.17.02,2.18.71,2.63,1.8.45,1.09.22,2.29-.6,3.13l-2.8,2.89,6.37,6.16c2.6,2.51,2.67,6.67.16,9.26-2.51,2.6-6.67,2.67-9.26.16Z"/>
      <path class="cls-1" d="M6.84,6.77c.1.1.23.15.36.15s.25-.05.35-.14c.2-.19.2-.51,0-.71L3.53,1.96c-.19-.2-.51-.2-.71,0-.2.19-.2.51,0,.71l4.02,4.1Z"/>
      <path class="cls-1" d="M11.14,5.48s.05,0,.08,0c.24,0,.45-.18.49-.42l.71-4.48c.04-.27-.14-.53-.42-.57-.28-.05-.53.14-.57.42l-.71,4.48c-.04.27.14.53.42.57Z"/>
      <path class="cls-1" d="M6.01,10.59c0-.28-.22-.5-.5-.5H.5c-.28,0-.5.22-.5.5s.22.5.5.5h5.01c.28,0,.5-.22.5-.5Z"/>
      <path class="cls-1" d="M7.64,13.2l-3.91,3.79c-.2.19-.2.51-.01.71.1.1.23.15.36.15s.25-.05.35-.14l3.91-3.79c.2-.19.2-.51.01-.71-.19-.2-.51-.2-.71-.01Z"/>
      <path class="cls-1" d="M15.02,7.62c.13,0,.26-.05.36-.16l3.65-3.85c.19-.2.18-.52-.02-.71-.2-.19-.52-.18-.71.02l-3.65,3.85c-.19.2-.18.52.02.71.1.09.22.14.34.14Z"/>
    </g>
  </g>
</svg>