<?xml version="1.0" encoding="UTF-8"?>
<svg id="Layer_2" data-name="Layer 2" xmlns="http://www.w3.org/2000/svg" viewBox="0 0 134.31 69.45">
  <defs>
    <style>
      .cls-1, .cls-2 {
        fill: #5eb3e4;
      }

      .cls-2 {
        opacity: .4;
      }
    </style>
  </defs>
  <g id="Working_Layer" data-name="Working Layer">
    <g>
      <rect class="cls-1" x="116.07" y="12.87" width="17.49" height="10.68" rx="4.34" ry="4.34"/>
      <path class="cls-2" d="M35.05,31.6h3.5c.67,0,1.14-.17,1.44-.5.29-.33.44-.71.44-1.12,0-.37-.15-.72-.44-1.03-.29-.31-.77-.47-1.44-.47h-3.5c-1.04,0-1.56.52-1.56,1.56s.52,1.56,1.56,1.56Z"/>
      <path class="cls-2" d="M39.17,37.85h-4.12c-1.04,0-1.56.52-1.56,1.56s.52,1.56,1.56,1.56h4.12c.67,0,1.14-.16,1.44-.47.29-.31.44-.66.44-1.03,0-.42-.15-.79-.44-1.12-.29-.33-.77-.5-1.44-.5Z"/>
      <path class="cls-2" d="M60.41,54.71V14.74c0-1.05.45-1.66,1.33-1.82C55.38,5.04,45.64,0,34.73,0,15.55,0,0,15.55,0,34.73s15.55,34.73,34.73,34.73c10.92,0,20.65-5.04,27.02-12.92-.89-.17-1.33-.77-1.33-1.82ZM57.47,49.72c-.92,1.58-2.23,2.88-3.93,3.9-1.71,1.02-3.77,1.77-6.18,2.25-2.42.48-5.14.72-8.18.72h-21.3c-1.25,0-1.87-.62-1.87-1.87V14.74c0-1.25.62-1.87,1.87-1.87h21.3c6.08,0,10.77,1,14.08,3,3.31,2,4.97,5.16,4.97,9.49,0,3.62-1.6,6.37-4.81,8.24-.33.21-.54.39-.62.53-.08.15-.13.32-.13.53s.05.4.16.56c.1.17.32.35.66.56,3.58,1.96,5.37,4.73,5.37,8.31,0,2.17-.46,4.04-1.37,5.62Z"/>
      <path class="cls-1" d="M53.48,35.79c-.33-.21-.55-.4-.66-.56-.1-.17-.16-.35-.16-.56s.04-.38.13-.53c.08-.15.29-.32.62-.53,3.21-1.87,4.81-4.62,4.81-8.24,0-4.33-1.66-7.5-4.97-9.49-3.31-2-8.01-3-14.08-3h-21.3c-1.25,0-1.87.62-1.87,1.87v39.97c0,1.25.62,1.87,1.87,1.87h21.3c3.04,0,5.77-.24,8.18-.72,2.41-.48,4.48-1.23,6.18-2.25,1.71-1.02,3.02-2.32,3.93-3.9.92-1.58,1.37-3.46,1.37-5.62,0-3.58-1.79-6.35-5.37-8.31ZM35.05,28.48h3.5c.67,0,1.14.16,1.44.47.29.31.44.66.44,1.03,0,.42-.15.79-.44,1.12-.29.33-.77.5-1.44.5h-3.5c-1.04,0-1.56-.52-1.56-1.56s.52-1.56,1.56-1.56ZM40.61,40.5c-.29.31-.77.47-1.44.47h-4.12c-1.04,0-1.56-.52-1.56-1.56s.52-1.56,1.56-1.56h4.12c.67,0,1.14.17,1.44.5.29.33.44.71.44,1.12,0,.37-.15.72-.44,1.03Z"/>
      <path class="cls-1" d="M92.26,43.47h-12.8c-1.04,0-1.56-.52-1.56-1.56s.52-1.56,1.56-1.56h10.93c1.25,0,1.87-.62,1.87-1.87v-7.5c0-1.25-.62-1.87-1.87-1.87h-10.93c-1.04,0-1.56-.52-1.56-1.56s.52-1.56,1.56-1.56h12.71c1.25,0,1.87-.62,1.87-1.87v-9.37c0-1.25-.62-1.87-1.87-1.87h-29.89c-.2,0-.37.02-.54.05-.89.17-1.33.77-1.33,1.82v39.97c0,1.05.45,1.66,1.33,1.82.17.03.34.05.54.05h29.98c1.25,0,1.87-.62,1.87-1.87v-9.37c0-1.25-.62-1.87-1.87-1.87Z"/>
      <path class="cls-1" d="M134.28,45.02c0-.76-.62-1.14-1.87-1.14h-17.02c-1.25,0-1.87-.38-1.87-1.14l.43-28.74c0-.76-.62-1.14-1.87-1.14h-13.74c-1.25,0-1.87.38-1.87,1.14v41.45c0,.76.62,1.14,1.87,1.14h34.51c1.25,0,1.48-.77,1.48-1.53l-.03-10.04Z"/>
      <rect class="cls-1" x="116.07" y="24.77" width="17.49" height="16.72" rx="1.87" ry="1.87"/>
    </g>
  </g>
</svg>